<?xml version="1.0" standalone="no"?><!-- Generator: Gravit.io --><svg xmlns="http://www.w3.org/2000/svg" xmlns:xlink="http://www.w3.org/1999/xlink" style="isolation:isolate" viewBox="0 0 600 600" width="600" height="600"><defs><clipPath id="_clipPath_MfjeyPrK7WNVYQaCtZGDMHaimfLMjpeg"><rect width="600" height="600"/></clipPath></defs><g clip-path="url(#_clipPath_MfjeyPrK7WNVYQaCtZGDMHaimfLMjpeg)"><g opacity="0.8"><rect x="77.5" y="100" width="5" height="420" transform="matrix(1,0,0,1,0,0)" fill="rgb(9,154,191)" fill-opacity="0.9490196078431372"/></g><g opacity="0.8"><rect x="160" y="22.5" width="5" height="160" transform="matrix(0,-1,1,0,60,265)" fill="rgb(9,154,191)" fill-opacity="0.9490196078431372"/></g><g opacity="0.8"><rect x="160" y="437.5" width="5" height="160" transform="matrix(0,-1,1,0,-355,680)" fill="rgb(9,154,191)" fill-opacity="0.9490196078431372"/></g><g opacity="0.8"><rect x="440" y="22.5" width="5" height="160" transform="matrix(0,-1,1,0,340,545)" fill="rgb(9,154,191)" fill-opacity="0.9490196078431372"/></g><g opacity="0.8"><rect x="440" y="437.5" width="5" height="160" transform="matrix(0,-1,1,0,-75,960)" fill="rgb(9,154,191)" fill-opacity="0.9490196078431372"/></g><g opacity="0.8"><rect x="522.5" y="100" width="5" height="420" transform="matrix(1,0,0,1,0,0)" fill="rgb(9,154,191)" fill-opacity="0.9490196078431372"/></g><rect x="510" y="188.06" width="30" height="243.879" transform="matrix(1,0,0,1,0,0)" fill="rgb(29,97,153)"/><rect x="65" y="188.06" width="30" height="243.879" transform="matrix(1,0,0,1,0,0)" fill="rgb(29,97,153)"/></g></svg>